<?xml version="1.0" encoding="utf-8" standalone="no"?>
<svg height="500" width="700" xmlns="http://www.w3.org/2000/svg" xmlns:xlink="http://www.w3.org/1999/xlink">

<defs>
	<g id="Hexagon">
		<polygon points="
		0,-57.73502692
		50,-28.86751346 
		50,28.86751346
		0, 57.73502692
		-50,28.86751346
		-50,-28.86751346 " 
			fill="none" stroke="grey"/>
	</g>
</defs>
<use xlink:href="#Hexagon" transform="translate(50 500)"/>
<use xlink:href="#Hexagon" transform="translate(150 500)"/>
<use xlink:href="#Hexagon" transform="translate(250 500)"/>
<use xlink:href="#Hexagon" transform="translate(350 500)"/>
<use xlink:href="#Hexagon" transform="translate(450 500)"/>
<use xlink:href="#Hexagon" transform="translate(550 500)"/>
<use xlink:href="#Hexagon" transform="translate(650 500)"/>

<use xlink:href="#Hexagon" transform="translate(0 413.3974596)"/>
<use xlink:href="#Hexagon" transform="translate(100 413.3974596)"/>
<use xlink:href="#Hexagon" transform="translate(200 413.3974596)"/>
<use xlink:href="#Hexagon" transform="translate(300 413.3974596)"/>
<use xlink:href="#Hexagon" transform="translate(400 413.3974596)"/>
<use xlink:href="#Hexagon" transform="translate(500 413.3974596)"/>
<use xlink:href="#Hexagon" transform="translate(600 413.3974596)"/>
<use xlink:href="#Hexagon" transform="translate(700 413.3974596)"/>

<use xlink:href="#Hexagon" transform="translate(50 326.7949192)"/>
<use xlink:href="#Hexagon" transform="translate(150 326.7949192)"/>
<use xlink:href="#Hexagon" transform="translate(250 326.7949192)"/>
<use xlink:href="#Hexagon" transform="translate(350 326.7949192)"/>
<use xlink:href="#Hexagon" transform="translate(450 326.7949192)"/>
<use xlink:href="#Hexagon" transform="translate(550 326.7949192)"/>
<use xlink:href="#Hexagon" transform="translate(650 326.7949192)"/>

<use xlink:href="#Hexagon" transform="translate(0 240.1923789)"/>
<use xlink:href="#Hexagon" transform="translate(100 240.1923789)"/>
<use xlink:href="#Hexagon" transform="translate(200 240.1923789)"/>
<use xlink:href="#Hexagon" transform="translate(300 240.1923789)"/>
<use xlink:href="#Hexagon" transform="translate(400 240.1923789)"/>
<use xlink:href="#Hexagon" transform="translate(500 240.1923789)"/>
<use xlink:href="#Hexagon" transform="translate(600 240.1923789)"/>
<use xlink:href="#Hexagon" transform="translate(700 240.1923789)"/>

<use xlink:href="#Hexagon" transform="translate(50 153.5898385)"/>
<use xlink:href="#Hexagon" transform="translate(150 153.5898385)"/>
<use xlink:href="#Hexagon" transform="translate(250 153.5898385)"/>
<use xlink:href="#Hexagon" transform="translate(350 153.5898385)"/>
<use xlink:href="#Hexagon" transform="translate(450 153.5898385)"/>
<use xlink:href="#Hexagon" transform="translate(550 153.5898385)"/>
<use xlink:href="#Hexagon" transform="translate(650 153.5898385)"/>

<use xlink:href="#Hexagon" transform="translate(0 66.98729811)"/>
<use xlink:href="#Hexagon" transform="translate(100 66.98729811)"/>
<use xlink:href="#Hexagon" transform="translate(200 66.98729811)"/>
<use xlink:href="#Hexagon" transform="translate(300 66.98729811)"/>
<use xlink:href="#Hexagon" transform="translate(400 66.98729811)"/>
<use xlink:href="#Hexagon" transform="translate(500 66.98729811)"/>
<use xlink:href="#Hexagon" transform="translate(600 66.98729811)"/>
<use xlink:href="#Hexagon" transform="translate(700 66.98729811)"/>

<use xlink:href="#Hexagon" transform="translate(50 -19.61524227)"/>
<use xlink:href="#Hexagon" transform="translate(150 -19.61524227)"/>
<use xlink:href="#Hexagon" transform="translate(250 -19.61524227)"/>
<use xlink:href="#Hexagon" transform="translate(350 -19.61524227)"/>
<use xlink:href="#Hexagon" transform="translate(450 -19.61524227)"/>
<use xlink:href="#Hexagon" transform="translate(550 -19.61524227)"/>
<use xlink:href="#Hexagon" transform="translate(650 -19.61524227)"/>
</svg>